<svg width="32" height="30" viewBox="0 0 32 30" fill="none" xmlns="http://www.w3.org/2000/svg">
<g filter="url(#filter0_i_14_13155)">
<path d="M27.4846 23.071V11.4193H4.68457V23.071C4.68457 25.2516 6.45231 27.0193 8.63292 27.0193H23.5362C25.7168 27.0193 27.4846 25.2516 27.4846 23.071Z" fill="url(#paint0_linear_14_13155)"/>
</g>
<path d="M16.1348 11.9548L16.0847 27.0193" stroke="url(#paint1_linear_14_13155)" stroke-width="4.8"/>
<path d="M16.1347 7.59059H11.1204C10.3816 7.59059 9.67306 7.2971 9.15063 6.77468C8.62821 6.25225 8.33472 5.5437 8.33472 4.80488C8.33472 4.06606 8.62821 3.3575 9.15063 2.83508C9.67306 2.31266 10.3816 2.01917 11.1204 2.01917C15.0204 2.01917 16.1347 7.59059 16.1347 7.59059Z" fill="url(#paint2_linear_14_13155)"/>
<path d="M16.1347 7.59059H21.149C21.8878 7.59059 22.5964 7.2971 23.1188 6.77468C23.6412 6.25225 23.9347 5.5437 23.9347 4.80488C23.9347 4.06606 23.6412 3.3575 23.1188 2.83508C22.5964 2.31266 21.8878 2.01917 21.149 2.01917C17.249 2.01917 16.1347 7.59059 16.1347 7.59059Z" fill="url(#paint3_linear_14_13155)"/>
<g filter="url(#filter1_f_14_13155)">
<rect x="6.48462" y="7.81934" width="20.4" height="6" rx="2.4" fill="#07BE21"/>
</g>
<g filter="url(#filter2_i_14_13155)">
<rect x="2.88477" y="6.75488" width="26" height="6" rx="2.4" fill="url(#paint4_linear_14_13155)"/>
</g>
<defs>
<filter id="filter0_i_14_13155" x="4.68457" y="9.01931" width="22.8" height="18" filterUnits="userSpaceOnUse" color-interpolation-filters="sRGB">
<feFlood flood-opacity="0" result="BackgroundImageFix"/>
<feBlend mode="normal" in="SourceGraphic" in2="BackgroundImageFix" result="shape"/>
<feColorMatrix in="SourceAlpha" type="matrix" values="0 0 0 0 0 0 0 0 0 0 0 0 0 0 0 0 0 0 127 0" result="hardAlpha"/>
<feOffset dy="-2.4"/>
<feGaussianBlur stdDeviation="1.8"/>
<feComposite in2="hardAlpha" operator="arithmetic" k2="-1" k3="1"/>
<feColorMatrix type="matrix" values="0 0 0 0 1 0 0 0 0 1 0 0 0 0 1 0 0 0 0.25 0"/>
<feBlend mode="normal" in2="shape" result="effect1_innerShadow_14_13155"/>
</filter>
<filter id="filter1_f_14_13155" x="1.68462" y="3.01934" width="29.9999" height="15.6" filterUnits="userSpaceOnUse" color-interpolation-filters="sRGB">
<feFlood flood-opacity="0" result="BackgroundImageFix"/>
<feBlend mode="normal" in="SourceGraphic" in2="BackgroundImageFix" result="shape"/>
<feGaussianBlur stdDeviation="2.4" result="effect1_foregroundBlur_14_13155"/>
</filter>
<filter id="filter2_i_14_13155" x="2.88477" y="6.75488" width="26" height="8.4" filterUnits="userSpaceOnUse" color-interpolation-filters="sRGB">
<feFlood flood-opacity="0" result="BackgroundImageFix"/>
<feBlend mode="normal" in="SourceGraphic" in2="BackgroundImageFix" result="shape"/>
<feColorMatrix in="SourceAlpha" type="matrix" values="0 0 0 0 0 0 0 0 0 0 0 0 0 0 0 0 0 0 127 0" result="hardAlpha"/>
<feOffset dy="2.4"/>
<feGaussianBlur stdDeviation="1.8"/>
<feComposite in2="hardAlpha" operator="arithmetic" k2="-1" k3="1"/>
<feColorMatrix type="matrix" values="0 0 0 0 1 0 0 0 0 1 0 0 0 0 1 0 0 0 0.35 0"/>
<feBlend mode="normal" in2="shape" result="effect1_innerShadow_14_13155"/>
</filter>
<linearGradient id="paint0_linear_14_13155" x1="5.28457" y1="11.4193" x2="24.4846" y2="30.6193" gradientUnits="userSpaceOnUse">
<stop stop-color="#3CE454"/>
<stop offset="1" stop-color="#3CD051"/>
</linearGradient>
<linearGradient id="paint1_linear_14_13155" x1="16.0847" y1="22.8193" x2="16.1098" y2="27.0193" gradientUnits="userSpaceOnUse">
<stop stop-color="white"/>
<stop offset="1" stop-color="white" stop-opacity="0.71"/>
</linearGradient>
<linearGradient id="paint2_linear_14_13155" x1="16.1347" y1="2.01917" x2="16.1347" y2="7.59059" gradientUnits="userSpaceOnUse">
<stop stop-color="#4BF062"/>
<stop offset="1" stop-color="#3CE454"/>
</linearGradient>
<linearGradient id="paint3_linear_14_13155" x1="16.1347" y1="2.01917" x2="16.1347" y2="7.59059" gradientUnits="userSpaceOnUse">
<stop stop-color="#4BF062"/>
<stop offset="1" stop-color="#3CE454"/>
</linearGradient>
<linearGradient id="paint4_linear_14_13155" x1="15.8848" y1="6.75488" x2="15.8848" y2="12.7549" gradientUnits="userSpaceOnUse">
<stop stop-color="#FFE600"/>
<stop offset="0.0001" stop-color="#FFEC44"/>
<stop offset="1" stop-color="#FFE600"/>
</linearGradient>
</defs>
</svg>
