<svg width="24" height="24" viewBox="0 0 24 24" fill="none" xmlns="http://www.w3.org/2000/svg">
<path d="M18.2453 8.7C18.2453 7.41214 18.244 6.51411 18.161 5.83021C18.08 5.16378 17.9311 4.80209 17.7063 4.53892C17.6298 4.4493 17.5463 4.36584 17.4567 4.2893C17.1935 4.06453 16.8318 3.9156 16.1654 3.83465C15.4815 3.75158 14.5835 3.75028 13.2956 3.75028H8.69561C7.40775 3.75028 6.50972 3.75158 5.82581 3.83465C5.15938 3.9156 4.7977 4.06453 4.53453 4.2893C4.44491 4.36584 4.36145 4.4493 4.28491 4.53892C4.06014 4.80209 3.91121 5.16378 3.83026 5.83021C3.74718 6.51411 3.74588 7.41214 3.74588 8.7V13.3C3.74588 14.5879 3.74718 15.4859 3.83026 16.1698C3.91121 16.8362 4.06014 17.1979 4.2849 17.4611L3.71439 17.9483L4.28491 17.4611C4.36145 17.5507 4.44491 17.6342 4.53453 17.7107L4.04726 18.2812L4.53453 17.7107C4.7977 17.9355 5.15938 18.0844 5.82581 18.1653C6.50972 18.2484 7.40775 18.2497 8.69561 18.2497H13.2956C14.5835 18.2497 15.4815 18.2484 16.1654 18.1653C16.8318 18.0844 17.1935 17.9355 17.4567 17.7107C17.5463 17.6342 17.6298 17.5507 17.7063 17.4611C17.9311 17.1979 18.08 16.8362 18.161 16.1698C18.244 15.4859 18.2453 14.5879 18.2453 13.3V8.7Z" stroke="#222727" stroke-width="1.50056"/>
<path d="M21.4956 13V13.86C21.4956 17.2824 21.4956 18.9935 20.5167 20.1216C20.3931 20.264 20.2596 20.3975 20.1172 20.5211C18.9892 21.5 17.278 21.5 13.8556 21.5H12.8062" stroke="#222727" stroke-width="1.50056" stroke-linecap="round"/>
</svg>
