<svg width="31" height="30" viewBox="0 0 31 30" fill="none" xmlns="http://www.w3.org/2000/svg">
<g opacity="0.8">
<g filter="url(#filter0_i_40_6290)">
<path d="M2.57574 11.7466C3.09164 6.84559 7.22442 3.125 12.1525 3.125H18.9864C23.9145 3.125 28.0473 6.84559 28.5631 11.7466L29.5124 20.7647C29.7804 23.311 27.784 25.5286 25.2236 25.5286H23.2529C21.5958 25.5286 20.1515 24.4009 19.7496 22.7933L19.4822 21.7238C19.3482 21.188 18.8668 20.8121 18.3144 20.8121H12.9719C12.4195 20.8121 11.9381 21.188 11.8041 21.7238L11.5367 22.7933C11.1348 24.4009 9.69044 25.5286 8.03342 25.5286H6.47324C3.61468 25.5286 1.38563 23.0526 1.68488 20.2098L2.57574 11.7466Z" fill="url(#paint0_linear_40_6290)"/>
</g>
<g filter="url(#filter1_d_40_6290)">
<circle cx="20.3106" cy="11.9683" r="3.53742" fill="#E7E7E7"/>
</g>
<g filter="url(#filter2_d_40_6290)">
<path d="M10.7051 9.6106V14.3271" stroke="white" stroke-width="1.80556" stroke-linecap="round" stroke-linejoin="round"/>
<path d="M13.064 11.9688L8.34741 11.9687" stroke="white" stroke-width="1.80556" stroke-linecap="round" stroke-linejoin="round"/>
</g>
</g>
<defs>
<filter id="filter0_i_40_6290" x="1.65796" y="3.125" width="27.8787" height="24.9037" filterUnits="userSpaceOnUse" color-interpolation-filters="sRGB">
<feFlood flood-opacity="0" result="BackgroundImageFix"/>
<feBlend mode="normal" in="SourceGraphic" in2="BackgroundImageFix" result="shape"/>
<feColorMatrix in="SourceAlpha" type="matrix" values="0 0 0 0 0 0 0 0 0 0 0 0 0 0 0 0 0 0 127 0" result="hardAlpha"/>
<feOffset dy="2.5"/>
<feGaussianBlur stdDeviation="1.875"/>
<feComposite in2="hardAlpha" operator="arithmetic" k2="-1" k3="1"/>
<feColorMatrix type="matrix" values="0 0 0 0 1 0 0 0 0 1 0 0 0 0 1 0 0 0 0.45 0"/>
<feBlend mode="normal" in2="shape" result="effect1_innerShadow_40_6290"/>
</filter>
<filter id="filter1_d_40_6290" x="14.2732" y="7.18091" width="12.075" height="12.0748" filterUnits="userSpaceOnUse" color-interpolation-filters="sRGB">
<feFlood flood-opacity="0" result="BackgroundImageFix"/>
<feColorMatrix in="SourceAlpha" type="matrix" values="0 0 0 0 0 0 0 0 0 0 0 0 0 0 0 0 0 0 127 0" result="hardAlpha"/>
<feOffset dy="1.25"/>
<feGaussianBlur stdDeviation="1.25"/>
<feComposite in2="hardAlpha" operator="out"/>
<feColorMatrix type="matrix" values="0 0 0 0 0.643137 0 0 0 0 0.643137 0 0 0 0 0.643137 0 0 0 1 0"/>
<feBlend mode="normal" in2="BackgroundImageFix" result="effect1_dropShadow_40_6290"/>
<feBlend mode="normal" in="SourceGraphic" in2="effect1_dropShadow_40_6290" result="shape"/>
</filter>
<filter id="filter2_d_40_6290" x="4.94458" y="7.45776" width="11.5222" height="11.5222" filterUnits="userSpaceOnUse" color-interpolation-filters="sRGB">
<feFlood flood-opacity="0" result="BackgroundImageFix"/>
<feColorMatrix in="SourceAlpha" type="matrix" values="0 0 0 0 0 0 0 0 0 0 0 0 0 0 0 0 0 0 127 0" result="hardAlpha"/>
<feOffset dy="1.25"/>
<feGaussianBlur stdDeviation="1.25"/>
<feComposite in2="hardAlpha" operator="out"/>
<feColorMatrix type="matrix" values="0 0 0 0 0.643137 0 0 0 0 0.643137 0 0 0 0 0.643137 0 0 0 1 0"/>
<feBlend mode="normal" in2="BackgroundImageFix" result="effect1_dropShadow_40_6290"/>
<feBlend mode="normal" in="SourceGraphic" in2="effect1_dropShadow_40_6290" result="shape"/>
</filter>
<linearGradient id="paint0_linear_40_6290" x1="6.75" y1="3.125" x2="24.25" y2="30.625" gradientUnits="userSpaceOnUse">
<stop stop-color="#C9C9C9"/>
<stop offset="1" stop-color="#979797"/>
</linearGradient>
</defs>
</svg>
